<svg role="img" viewBox="0 0 120 40" xmlns="http://www.w3.org/2000/svg">
  <title>Citi</title>
  <path fill="#E4002B" d="M8 26C28 4 52 4 72 12C92 20 104 26 112 26C104 18 88 10 60 10C32 10 16 18 8 26Z"/>
  <path fill="#003B7A" d="M18 34h6.2c3.4 0 5.8-2.1 5.8-5.4 0-3.1-2.1-5.2-5.4-5.2H18V34zm4.8-8.5h1.1c1.4 0 2.2.8 2.2 2.1 0 1.3-.8 2-2.2 2h-1.1v-4.1zm11.1 8.5h4.3v-9.4h4.3v9.4h4.8V18.4h-4.3v5.6h-4.3v-5.6h-4.8V34zm24.2 0h4.8V18.4H58v15.6zm10.2 0h4.8l6.8-15.6h-5.3l-3.8 9.6-3.8-9.6H63l6.8 15.6zm18.4 0h4.8V18.4h-4.8V34z"/>
</svg>
